HIERARCHY
ROOT Hips
{
	OFFSET 0.00000 0.00000 0.00000
	CHANNELS 6 Xposition Yposition Zposition Zrotation Yrotation Xrotation 
	JOINT LHipJoint
	{
		OFFSET 0 0 0
		CHANNELS 3 Zrotation Yrotation Xrotation
		JOINT LeftHip
		{
			OFFSET 1.85742 -1.74412 1.01653
			CHANNELS 3 Zrotation Yrotation Xrotation
			JOINT LeftKnee
			{
				OFFSET 2.54803 -7.00067 0.00000
				CHANNELS 3 Zrotation Yrotation Xrotation
				JOINT LeftAnkle
				{
					OFFSET 2.51202 -6.90173 0.00000
					CHANNELS 3 Zrotation Yrotation Xrotation
					JOINT LeftToe
					{
						OFFSET 0.17547 -0.48209 1.64281
						CHANNELS 3 Zrotation Yrotation Xrotation
						End Site
						{
							OFFSET 0.00000 -0.00000 0.86587
						}
					}
				}
			}
		}
	}
	JOINT RHipJoint
	{
		OFFSET 0 0 0
		CHANNELS 3 Zrotation Yrotation Xrotation
		JOINT RightHip
		{
			OFFSET -1.95533 -1.74413 1.01654
			CHANNELS 3 Zrotation Yrotation Xrotation
			JOINT RightKnee
			{
				OFFSET -2.49465 -6.85400 0.00000
				CHANNELS 3 Zrotation Yrotation Xrotation
				JOINT RightAnkle
				{
					OFFSET -2.54783 -7.00010 0.00000
					CHANNELS 3 Zrotation Yrotation Xrotation
					JOINT RightToe
					{
						OFFSET -0.18513 -0.50864 1.69288
						CHANNELS 3 Zrotation Yrotation Xrotation
						End Site
						{
							OFFSET -0.00000 -0.00000 0.89242
						}
					}
				}
			}
		}
	}
	JOINT lowerback
	{
		OFFSET 0 0 0
		CHANNELS 3 Zrotation Yrotation Xrotation
		JOINT Chest
		{
			OFFSET 0.02173 2.16290 -0.15998
			CHANNELS 3 Zrotation Yrotation Xrotation
			JOINT Chest2
			{
				OFFSET 0.00940 2.17323 -0.00467
				CHANNELS 3 Zrotation Yrotation Xrotation
				JOINT lowerneck
				{
					OFFSET 0 0 0
					CHANNELS 3 Zrotation Yrotation Xrotation
					JOINT Neck
					{
						OFFSET 0.01475 1.85823 0.31113
						CHANNELS 3 Zrotation Yrotation Xrotation
						JOINT Head
						{
							OFFSET 0.01902 1.88783 -0.37187
							CHANNELS 3 Zrotation Yrotation Xrotation
							End Site
							{
								OFFSET 0.00489 1.93211 -0.16169
							}
						}
					}
				}
				JOINT LeftCollar
				{
					OFFSET 0 0 0
					CHANNELS 3 Zrotation Yrotation Xrotation
					JOINT LeftShoulder
					{
						OFFSET 3.34199 1.32384 -0.07862
CHANNELS 3 Zrotation Xrotation Yrotation
						JOINT LeftElbow
						{
OFFSET 0 -5.279500 0.000000
CHANNELS 3 Zrotation Xrotation Yrotation
							JOINT LeftWrist
							{
OFFSET 0 -3.535040 0.000000
CHANNELS 3 Zrotation Xrotation Yrotation
								JOINT lhand
								{
									OFFSET 0 0 0
CHANNELS 3 Zrotation Xrotation Yrotation
									JOINT LFingers
									{
OFFSET 0 -0.667950 0.000000
CHANNELS 3 Zrotation Xrotation Yrotation
										End Site
										{
OFFSET 0 -0.538520 0.000000
										}
									}
								}
								JOINT LThumb
								{
OFFSET 0 0.000000 0.000000
CHANNELS 3 Zrotation Xrotation Yrotation
									End Site
									{
OFFSET 0 -0.546740 0.546740
									}
								}
							}
						}
					}
				}
				JOINT RightCollar
				{
					OFFSET 0 0 0
					CHANNELS 3 Zrotation Yrotation Xrotation
					JOINT RightShoulder
					{
						OFFSET -3.16149 1.45719 -0.50507
CHANNELS 3 Zrotation Xrotation Yrotation
						JOINT RightElbow
						{
OFFSET 0 -5.250350 0.000000
CHANNELS 3 Zrotation Xrotation Yrotation
							JOINT RightWrist
							{
OFFSET 0 -3.588840 0.000000
CHANNELS 3 Zrotation Xrotation Yrotation
								JOINT rhand
								{
									OFFSET 0 0 0
CHANNELS 3 Zrotation Xrotation Yrotation
									JOINT RFingers
									{
OFFSET 0 -0.779240 0.000000
CHANNELS 3 Zrotation Xrotation Yrotation
										End Site
										{
OFFSET 0 -0.628240 0.000000
										}
									}
								}
								JOINT RThumb
								{
OFFSET 0 0.000000 0.000000
CHANNELS 3 Zrotation Xrotation Yrotation
									End Site
									{
OFFSET 0 -0.637830 0.637830
									}
								}
							}
						}
					}
				}
			}
		}
	}
}
MOTION
Frames: 6
Frame Time: 0.008333333333333333
6.282900 17.560900 -12.659200 -1.755100 0.786700 2.591100 0.000000 0.000000 0.000000 -16.739500 -20.058000 -3.133400 1.392600 7.466000 21.103400 -0.242500 17.090700 -21.860600 2.354000 -9.567400 -27.586900 0.000000 0.000000 0.000000 22.458500 0.563100 2.722400 -0.037500 -1.250200 3.437600 0.868000 -18.999100 -17.715000 -1.089800 -6.634500 18.636900 2.358100 2.075100 3.370000 -0.448100 2.891100 -3.184100 -2.003600 1.339900 -5.044900 -1.035800 -0.109500 -23.427300 0.008100 0.260900 26.426800 0.224500 0.014800 12.700800 0.000000 -0.000000 0.000000 7.478900 6.097500 -45.920600 17.000100 -26.858000 4.087400 39.575100 5.042600 -57.667500 0.000000 0.000000 0.000000 -7.125000 0.000000 0.000000 175.457300 4.043000 -4.224600 0.000000 -0.000000 0.000000 -1.044300 2.117700 2.228500 -11.377600 -18.864700 -1.896200 -4.142600 35.049700 -31.735700 0.000000 0.000000 0.000000 7.125000 0.000000 -0.000000 15.506400 -0.821200 16.333700
6.283373 17.563445 -12.666021 -1.876173 0.769704 2.664148 0.000000 0.000000 0.000000 -16.586041 -20.275951 -3.182549 1.397129 7.477503 21.137882 -0.164584 16.934904 -22.422736 1.896105 -8.642748 -24.686249 0.000000 0.000000 0.000000 22.383619 0.488607 2.954823 -0.024367 -1.005595 2.764242 0.914099 -19.119024 -17.287323 -1.130178 -6.752146 18.983237 2.466173 2.065763 3.415250 -0.508291 2.882675 -3.145556 -2.126528 1.331273 -5.022783 -0.947818 -0.106511 -23.729602 -0.093560 0.266446 26.413962 0.171615 0.011396 12.756595 0.000000 0.000000 0.000000 7.341944 5.605659 -44.772602 16.752474 -26.529734 3.976507 31.907473 -2.065688 -53.709500 0.000000 0.000000 0.000000 -7.125000 0.000000 0.000000 5.686702 -2.377096 174.528879 0.000000 0.000000 0.000000 -1.275226 1.806548 5.795448 -11.068254 -18.392570 -1.797615 -6.857262 27.807514 -31.133844 0.000000 0.000000 0.000000 7.125000 0.000000 0.000000 13.970024 -0.531729 14.535966
6.287663 17.562541 -12.670167 -2.004151 0.924796 2.711553 0.000000 0.000000 0.000000 -16.469781 -20.709491 -3.214071 1.420604 7.537565 21.318059 -0.124808 16.940036 -22.827677 1.653454 -8.103514 -23.028994 0.000000 0.000000 0.000000 22.111711 0.106416 3.483442 -0.006859 -0.534163 1.467779 0.964010 -19.236941 -16.767946 -1.204116 -6.961939 19.602550 2.570180 2.049594 3.405566 -0.525299 2.865893 -3.131783 -2.200142 1.319484 -4.998021 -1.310370 -0.232566 -23.599854 0.213971 0.126044 26.068568 0.325429 -0.042915 12.591803 0.000000 0.000000 0.000000 7.271299 5.331248 -44.169611 16.543176 -26.251581 3.883127 30.484223 -2.058625 -54.583672 0.000000 0.000000 0.000000 -7.125000 0.000000 0.000000 6.454611 -2.070761 173.742565 0.000000 0.000000 0.000000 -2.158164 2.191540 14.227027 -11.237370 -18.650885 -1.851359 -10.076338 15.824240 -28.173609 0.000000 0.000000 0.000000 7.125000 0.000000 0.000000 11.986261 1.970113 11.831877
6.292929 17.563080 -12.666759 -1.877667 1.047586 2.663147 0.000000 0.000000 0.000000 -16.645975 -20.658780 -3.112486 1.403455 7.493800 21.186755 -0.135973 16.895348 -22.650436 1.667454 -8.136016 -23.128154 0.000000 0.000000 0.000000 22.289892 0.171798 2.991818 -0.020580 -0.926360 2.546268 0.912529 -19.110029 -17.289946 -1.123493 -6.732231 18.924741 2.434142 2.021406 3.398365 -0.571263 2.817812 -3.112727 -2.167530 1.300151 -4.980504 -1.170772 -0.122212 -23.472823 -0.217263 0.361397 25.883550 0.177459 0.015856 12.492376 0.000000 0.000000 0.000000 7.216086 5.375060 -44.427256 16.586473 -26.309404 3.902250 30.615121 -2.189345 -54.527918 0.000000 0.000000 0.000000 -7.125000 0.000000 0.000000 6.392120 -2.078321 173.804843 0.000000 0.000000 0.000000 -3.102342 2.851899 22.353161 -11.765264 -19.451600 -2.023540 -13.717922 4.021315 -26.914734 0.000000 0.000000 0.000000 7.125000 0.000000 0.000000 9.761033 2.734279 9.424374
6.295145 17.562320 -12.667853 -1.905858 1.117197 2.669228 0.000000 0.000000 0.000000 -16.562347 -20.412613 -3.314094 1.415011 7.523313 21.275313 -0.111189 16.599401 -22.459143 1.716617 -8.249051 -23.473195 0.000000 0.000000 0.000000 22.173513 -0.001136 3.230019 -0.013363 -0.746531 2.051760 0.921057 -19.074295 -17.059148 -1.116319 -6.711624 18.863854 2.340745 2.027654 3.387907 -0.557510 2.821431 -3.139612 -2.101671 1.304915 -5.007344 -1.298270 -0.301972 -23.369247 -0.054168 0.101083 25.931048 0.215994 -0.089577 12.491950 0.000000 0.000000 0.000000 7.130375 5.484205 -44.360493 16.656393 -26.402557 3.933328 30.253040 -2.527907 -54.686689 0.000000 0.000000 0.000000 -7.125000 0.000000 0.000000 6.566747 -2.053602 173.630366 0.000000 0.000000 0.000000 -3.819823 3.479231 28.089585 -12.504821 -20.557402 -2.276438 -16.308859 -4.109918 -26.047037 0.000000 0.000000 0.000000 7.125000 0.000000 0.000000 8.143628 3.227377 7.752160
6.298465 17.562118 -12.666767 -1.993032 1.162224 2.704505 0.000000 0.000000 0.000000 -16.422989 -20.180158 -3.505687 1.424539 7.547552 21.348155 -0.087024 16.344809 -22.327498 1.757354 -8.341281 -23.755619 0.000000 0.000000 0.000000 21.988610 -0.214068 3.638574 -0.004528 -0.435282 1.196191 0.939507 -19.094951 -16.804528 -1.323666 -7.286303 20.566290 2.369016 2.073499 3.360526 -0.546007 2.884921 -3.191185 -2.110310 1.334592 -5.041680 -1.256776 -0.363428 -23.331406 -0.239096 0.056292 26.140890 0.130622 -0.131999 12.569028 0.000000 0.000000 0.000000 7.103828 5.660681 -44.359323 16.764515 -26.546187 3.981529 29.714976 -2.723411 -54.993942 0.000000 0.000000 0.000000 -7.125000 0.000000 0.000000 6.845047 -1.952368 173.344048 0.000000 0.000000 0.000000 -3.747413 3.635463 28.021310 -12.553664 -20.629834 -2.293605 -16.637263 -4.028037 -25.491282 0.000000 0.000000 0.000000 7.125000 0.000000 0.000000 7.901591 3.739629 7.441819
